<svg xmlns="http://www.w3.org/2000/svg" xmlns:xlink="http://www.w3.org/1999/xlink" xmlns:sketch="http://www.bohemiancoding.com/sketch/ns" viewBox="0 0 100 100" version="1.1" x="0px" y="0px"><title>Next</title><desc>Created with Sketch.</desc><g stroke="none" stroke-width="1" fill="none" fill-rule="evenodd" sketch:type="MSPage"><g sketch:type="MSArtboardGroup" fill="#000000"><path d="M60.8150114,40.8520889 L49.5968016,29.6338791 C47.068687,27.1057645 47.065207,23.0059002 49.59178,20.4793272 L54.1808806,15.8902266 C56.6988339,13.3722733 60.8060862,13.3659018 63.3354326,15.8952482 L87.8242661,40.3840818 C88.0660201,40.5657051 88.2979236,40.7665036 88.517901,40.9864809 L93.1070016,45.5755815 C94.3298581,46.798438 94.960331,48.3961477 94.9956558,50.005917 C95.0589963,51.7397516 94.429704,53.4936451 93.1070016,54.8163476 L88.517901,59.4054482 C88.2986119,59.6247372 88.0672685,59.8249766 87.8259629,60.0061505 L63.3354326,84.4966809 C60.8073179,87.0247955 56.7074537,87.0282755 54.1808806,84.5017025 L49.59178,79.9126019 C47.0738267,77.3946486 47.0674552,73.2873963 49.5968016,70.75805 L60.0734045,60.2814471 L11.4880937,60.2814471 C7.90512341,60.2814471 5,57.384866 5,53.8117521 L5,47.3217839 C5,43.7608601 7.90481849,40.8520889 11.4880937,40.8520889 L60.8150114,40.8520889 L60.8150114,40.8520889 Z" sketch:type="MSShapeGroup"/></g></g></svg>