<svg xmlns="http://www.w3.org/2000/svg" xmlns:xlink="http://www.w3.org/1999/xlink" xmlns:sketch="http://www.bohemiancoding.com/sketch/ns" viewBox="0 0 100 125" version="1.1" x="0px" y="0px"><title>Previous</title><desc>Created with Sketch.</desc><g stroke="none" stroke-width="1" fill="none" fill-rule="evenodd" sketch:type="MSPage"><g sketch:type="MSArtboardGroup" fill="#000000"><path d="M39.1849886,40.8520889 L50.4031984,29.6338791 C52.931313,27.1057645 52.934793,23.0059002 50.40822,20.4793272 L45.8191194,15.8902266 C43.3011661,13.3722733 39.1939138,13.3659018 36.6645674,15.8952482 L12.1757339,40.3840818 C11.9339799,40.5657051 11.7020764,40.7665036 11.482099,40.9864809 L6.89299842,45.5755815 C5.67014193,46.798438 5.03966897,48.3961477 5.00434424,50.005917 C4.94100371,51.7397516 5.57029596,53.4936451 6.89299842,54.8163476 L11.482099,59.4054482 C11.7013881,59.6247372 11.9327315,59.8249766 12.1740371,60.0061505 L36.6645674,84.4966809 C39.1926821,87.0247955 43.2925463,87.0282755 45.8191194,84.5017025 L50.40822,79.9126019 C52.9261733,77.3946486 52.9325448,73.2873963 50.4031984,70.75805 L39.9265955,60.2814471 L88.5119063,60.2814471 C92.0948766,60.2814471 95,57.384866 95,53.8117521 L95,47.3217839 C95,43.7608601 92.0951815,40.8520889 88.5119063,40.8520889 L39.1849886,40.8520889 L39.1849886,40.8520889 Z" sketch:type="MSShapeGroup"/></g></g><text x="0" y="115" fill="#000000" font-size="5px" font-weight="bold" font-family="'Helvetica Neue', Helvetica, Arial-Unicode, Arial, Sans-serif">Created by Heberti Almeida</text><text x="0" y="120" fill="#000000" font-size="5px" font-weight="bold" font-family="'Helvetica Neue', Helvetica, Arial-Unicode, Arial, Sans-serif">from the Noun Project</text></svg>